<svg width="160" height="160" viewBox="0 0 160 160" fill="none" xmlns="http://www.w3.org/2000/svg">
<mask id="mask0" mask-type="alpha" maskUnits="userSpaceOnUse" x="0" y="0" width="160" height="160">
<rect width="160" height="160" rx="8" fill="#0145FF"/>
</mask>
<g mask="url(#mask0)">
<rect width="160" height="160" rx="8" fill="#0145FF"/>
<rect x="40.8242" y="125.256" width="46.2193" height="4" transform="rotate(-66.0989 40.8242 125.256)" fill="#3BB7FF"/>
<rect x="25" y="109.57" width="41.4787" height="4" transform="rotate(-49.562 25 109.57)" fill="#3BB7FF"/>
<rect x="66" y="127.458" width="41.4787" height="4" transform="rotate(-88.1983 66 127.458)" fill="#3BB7FF"/>
<path d="M161.517 37.4783L191.21 -8.51998L160.268 -44.6318L142.69 8.44904L101.968 37.8645C97.7764 40.8923 94.6477 45.1382 93.0372 49.9842L80.0694 89.0044C84.592 89.4412 89.008 87.2105 91.34 83.311L106.099 58.6307L130.021 41.3505C134.257 38.2912 139.733 42.7051 137.491 47.3716L129.569 63.8635C128.306 66.4927 128.578 69.5599 130.279 71.8738L131.909 74.0907L161.517 37.4783Z" fill="#F89F51"/>
<path d="M90.6441 58.1507L99.152 35.6149L224.357 66.1698L198.476 128.15L90.6441 58.1507Z" fill="#4AD4FF"/>
<path d="M104.313 15.4637L76.8116 29.627L62.2325 64.5409L60.2001 76.1509L68.1687 79.5444L82.6897 67.2462L108.756 85.7395L110.23 82.2089L91.8493 63.2921L111.484 18.5179L104.313 15.4637Z" fill="white"/>
<path fill-rule="evenodd" clip-rule="evenodd" d="M155.641 44.3497L155.4 42.5945L150.835 39.353L137.003 36.1353L135.3 40.8124C137.401 41.9386 138.638 44.5039 137.329 47.1717L129.256 63.6267C127.969 66.25 128.221 69.2965 129.914 71.5831L131.536 73.7737L155.641 44.3497Z" fill="#F89F51"/>
<rect y="136" width="160" height="32" fill="#012999"/>
<path d="M40 136C48.8366 136 56 128.837 56 120C56 128.837 63.1634 136 72 136C63.1634 136 56 143.163 56 152C56 143.163 48.8366 136 40 136Z" fill="white"/>
<path d="M8 119C14.6274 119 20 113.627 20 107C20 113.627 25.3726 119 32 119C25.3726 119 20 124.373 20 131C20 124.373 14.6274 119 8 119Z" fill="white"/>
<path d="M80 119C86.6274 119 92 113.627 92 107C92 113.627 97.3726 119 104 119C97.3726 119 92 124.373 92 131C92 124.373 86.6274 119 80 119Z" fill="white"/>
</g>
</svg>
