<svg width="160" height="160" viewBox="0 0 160 160" fill="none" xmlns="http://www.w3.org/2000/svg">
<rect width="160" height="160" rx="8" fill="white"/>
<path fill-rule="evenodd" clip-rule="evenodd" d="M48 144L48 16L112 16L112 144L48 144Z" fill="#E34B48"/>
<path d="M39.2427 60.2273C39.2427 63.1284 36.9226 65.4545 34.0288 65.4545C31.1351 65.4545 28.8149 63.1284 28.8149 60.2273C28.8149 57.3261 31.1351 55 34.0288 55C36.9226 55 39.2427 57.3261 39.2427 60.2273Z" fill="#F89F51"/>
<path d="M28.8147 85.3977V105H39.2425V85.3977H43.153V71.0227C43.153 68.1477 40.8067 65.7954 37.9391 65.7954H30.1182C27.2506 65.7954 24.9043 68.1477 24.9043 71.0227V85.3977H28.8147Z" fill="#4AD4FF"/>
<path fill-rule="evenodd" clip-rule="evenodd" d="M28.8147 105V85.3977H28.1445V85.3975H40.8249V85.3977H39.2425V105H28.8147Z" fill="#0145FF"/>
<path d="M126.676 65.4545C129.57 65.4545 131.89 63.1284 131.89 60.2273C131.89 57.3261 129.57 55 126.676 55C123.783 55 121.462 57.3261 121.462 60.2273C121.462 63.1284 123.783 65.4545 126.676 65.4545Z" fill="#F89F51"/>
<path d="M130.587 89.3181V105H122.766V89.3181H114.945L121.567 69.3761C122.271 67.2329 124.278 65.7954 126.52 65.7954H126.833C129.075 65.7954 131.056 67.2329 131.786 69.3761L138.408 89.3181H130.587Z" fill="#4AD4FF"/>
<path fill-rule="evenodd" clip-rule="evenodd" d="M130.587 89.3193V105H122.766V89.3193H130.587Z" fill="#0145FF"/>
<path d="M56.4546 91.5909H74.3182V86.5455H65.2273V86.4091L67.4091 84.5909C72.7159 80.1705 74.0682 77.875 74.0682 75.1818C74.0682 70.8409 70.5114 68 64.9318 68C59.5114 68 55.9887 71.0114 56 75.9091H62C61.9887 73.9545 63.1818 72.8636 64.9318 72.8636C66.6705 72.8636 67.9091 73.9432 67.9091 75.7273C67.9091 77.375 66.8523 78.4432 65.1364 79.8636L56.4546 87.0455V91.5909Z" fill="white"/>
<path d="M77.1875 91.5909H83.4603V81.4091C83.4603 79.8864 84.2557 78.9545 85.5512 78.9545C86.8466 78.9545 87.6875 79.8864 87.6875 81.4091V91.5909H93.6875V81.4091C93.6875 79.8864 94.483 78.9545 95.7784 78.9545C97.0739 78.9545 97.9148 79.8864 97.9148 81.4091V91.5909H104.188V79.8182C104.188 76.2386 101.892 73.9091 98.5512 73.9091C95.9603 73.9091 93.8693 75.3182 93.2784 77.4545H93.0966C92.733 75.3182 90.7784 73.9091 88.3239 73.9091C85.9034 73.9091 84.0512 75.2727 83.3239 77.4545H83.1421V74.1364H77.1875V91.5909Z" fill="white"/>
</svg>
