<svg width="96" height="96" viewBox="0 0 96 96" fill="none" xmlns="http://www.w3.org/2000/svg">
<circle opacity="0.1" cx="48" cy="48" r="48" fill="#0074A3"/>
<path d="M59.6205 32.94C59.4605 32.94 59.3005 32.9 59.1605 32.82C55.3205 30.84 52.0005 30 48.0205 30C44.0605 30 40.3005 30.94 36.8805 32.82C36.4005 33.08 35.8005 32.9 35.5205 32.42C35.2605 31.94 35.4405 31.32 35.9205 31.06C39.6405 29.04 43.7205 28 48.0205 28C52.2805 28 56.0005 28.94 60.0805 31.04C60.5805 31.3 60.7605 31.9 60.5005 32.38C60.3205 32.74 59.9805 32.94 59.6205 32.94ZM31.0005 43.44C30.8005 43.44 30.6005 43.38 30.4205 43.26C29.9605 42.94 29.8605 42.32 30.1805 41.86C32.1605 39.06 34.6805 36.86 37.6805 35.32C43.9605 32.08 52.0005 32.06 58.3005 35.3C61.3005 36.84 63.8205 39.02 65.8005 41.8C66.1205 42.24 66.0205 42.88 65.5605 43.2C65.1005 43.52 64.4805 43.42 64.1605 42.96C62.3605 40.44 60.0805 38.46 57.3805 37.08C51.6405 34.14 44.3005 34.14 38.5805 37.1C35.8605 38.5 33.5805 40.5 31.7805 43.02C31.6205 43.3 31.3205 43.44 31.0005 43.44ZM43.5005 67.58C43.2405 67.58 42.9805 67.48 42.8005 67.28C41.0605 65.54 40.1205 64.42 38.7805 62C37.4005 59.54 36.6805 56.54 36.6805 53.32C36.6805 47.38 41.7605 42.54 48.0005 42.54C54.2405 42.54 59.3205 47.38 59.3205 53.32C59.3205 53.88 58.8805 54.32 58.3205 54.32C57.7605 54.32 57.3205 53.88 57.3205 53.32C57.3205 48.48 53.1405 44.54 48.0005 44.54C42.8605 44.54 38.6805 48.48 38.6805 53.32C38.6805 56.2 39.3205 58.86 40.5405 61.02C41.8205 63.32 42.7005 64.3 44.2405 65.86C44.6205 66.26 44.6205 66.88 44.2405 67.28C44.0205 67.48 43.7605 67.58 43.5005 67.58ZM57.8405 63.88C55.4605 63.88 53.3605 63.28 51.6405 62.1C48.6605 60.08 46.8805 56.8 46.8805 53.32C46.8805 52.76 47.3205 52.32 47.8805 52.32C48.4405 52.32 48.8805 52.76 48.8805 53.32C48.8805 56.14 50.3205 58.8 52.7605 60.44C54.1805 61.4 55.8405 61.86 57.8405 61.86C58.3205 61.86 59.1205 61.8 59.9205 61.66C60.4605 61.56 60.9805 61.92 61.0805 62.48C61.1805 63.02 60.8205 63.54 60.2605 63.64C59.1205 63.86 58.1205 63.88 57.8405 63.88ZM53.8205 68C53.7405 68 53.6405 67.98 53.5605 67.96C50.3805 67.08 48.3005 65.9 46.1205 63.76C43.3205 60.98 41.7805 57.28 41.7805 53.32C41.7805 50.08 44.5405 47.44 47.9405 47.44C51.3405 47.44 54.1005 50.08 54.1005 53.32C54.1005 55.46 55.9605 57.2 58.2605 57.2C60.5605 57.2 62.4205 55.46 62.4205 53.32C62.4205 45.78 55.9205 39.66 47.9205 39.66C42.2405 39.66 37.0405 42.82 34.7005 47.72C33.9205 49.34 33.5205 51.24 33.5205 53.32C33.5205 54.88 33.6605 57.34 34.8605 60.54C35.0605 61.06 34.8005 61.64 34.2805 61.82C33.7605 62.02 33.1805 61.74 33.0005 61.24C32.0205 58.62 31.5405 56.02 31.5405 53.32C31.5405 50.92 32.0005 48.74 32.9005 46.84C35.5605 41.26 41.4605 37.64 47.9205 37.64C57.0205 37.64 64.4205 44.66 64.4205 53.3C64.4205 56.54 61.6605 59.18 58.2605 59.18C54.8605 59.18 52.1005 56.54 52.1005 53.3C52.1005 51.16 50.2405 49.42 47.9405 49.42C45.6405 49.42 43.7805 51.16 43.7805 53.3C43.7805 56.72 45.1005 59.92 47.5205 62.32C49.4205 64.2 51.2405 65.24 54.0605 66.02C54.6005 66.16 54.9005 66.72 54.7605 67.24C54.6605 67.7 54.2405 68 53.8205 68Z" fill="#0074A3"/>
</svg>
