<svg width="160" height="167" viewBox="0 0 160 167" fill="none" xmlns="http://www.w3.org/2000/svg">
<rect y="2" width="160" height="160" rx="8" fill="#0145FF"/>
<path d="M106 127.273C106 130.5 108.182 132.818 111.727 132.818C115.227 132.818 117.364 130.5 117.364 127.273V126.091C117.364 122.818 115.182 120.5 111.682 120.5C108.227 120.5 106 122.818 106 126.091V127.273ZM108.864 126.091C108.864 124.273 109.818 122.818 111.682 122.818C113.591 122.818 114.5 124.273 114.5 126.091V127.273C114.5 129.136 113.591 130.5 111.727 130.5C109.818 130.5 108.864 129.136 108.864 127.273V126.091Z" fill="white"/>
<path d="M140.814 129.045C140.314 123.273 136.087 120 130.223 120C123.95 120 118.996 124.182 118.996 131.955C118.996 139.693 123.814 143.909 130.223 143.909C137.041 143.909 140.496 139.182 140.814 135.227L134.405 135.182C134.087 137.17 132.678 138.409 130.359 138.409C127.28 138.409 125.496 136.227 125.496 131.955C125.496 127.909 127.223 125.5 130.405 125.5C132.837 125.5 134.223 126.932 134.405 129.045H140.814Z" fill="white"/>
<path d="M110.662 21.3377C119.133 12.8669 132.867 12.8669 141.338 21.3377V21.3377C149.809 29.8085 149.809 43.5424 141.338 52.0132L88.0143 105.337C83.1704 110.181 77.1606 113.695 70.564 115.542L52.9054 120.487C50.1301 121.264 47.6017 122.743 45.5638 124.781L25.6656 144.679C23.5479 146.796 20.1144 146.796 17.9967 144.679V144.679C15.879 142.561 15.879 139.128 17.9967 137.01L37.8949 117.112C39.9328 115.074 41.4116 112.545 42.1886 109.77L47.133 92.1115C48.9801 85.5149 52.4949 79.5051 57.3388 74.6612L110.662 21.3377Z" fill="white"/>
<rect x="108.107" y="39.2317" width="21.6908" height="57.8422" rx="10.8757" transform="rotate(45 108.107 39.2317)" fill="#4AD4FF"/>
<path d="M33.3345 121.672L41.0033 129.341L25.0265 145.318C22.9088 147.435 19.4754 147.436 17.3577 145.318V145.318C15.24 143.2 15.24 139.767 17.3577 137.649L33.3345 121.672Z" fill="#4AD4FF"/>
</svg>
