<svg width="160" height="160" viewBox="0 0 160 160" fill="none" xmlns="http://www.w3.org/2000/svg">
<mask id="mask0" mask-type="alpha" maskUnits="userSpaceOnUse" x="0" y="0" width="160" height="160">
<rect width="160" height="160" rx="8" fill="#0145FF"/>
</mask>
<g mask="url(#mask0)">
<rect width="160" height="160" rx="8" fill="#0145FF"/>
<path fill-rule="evenodd" clip-rule="evenodd" d="M117.5 41.5C111.149 41.5 106 46.6487 106 53H90C90 37.8122 102.312 25.5 117.5 25.5H160V41.5H117.5Z" fill="white"/>
<path d="M98 85C93.4667 85 90 81.5333 90 77C90 75.1333 90.5333 73.5333 91.3333 71.9333L98 61L104.667 71.9333C105.467 73.5333 106 75.1333 106 77C106 81.5333 102.533 85 98 85Z" fill="#4AD4FF"/>
<path d="M21.65 104.887L-14.1289 66.3643L-4.4989 9.50001L30.7613 72.6986L78.7058 85.5453C83.6409 86.8676 88.0252 89.7303 91.2206 93.7169L116.95 125.816C112.932 127.887 108.071 127.4 104.544 124.572L82.221 106.675L54.0559 99.1282C49.0694 97.7921 45.575 103.97 49.2892 107.555L62.4159 120.227C64.5086 122.247 65.3399 125.243 64.5871 128.053L63.8659 130.745L26.1464 108.505C24.4806 107.522 22.966 106.304 21.65 104.887Z" fill="#F26C6A"/>
<path d="M31.5302 100.05L-13 128L-9.5 176L32 133.5H81.6358C86.745 133.5 91.7208 131.87 95.8392 128.846L129 104.5C125.655 101.459 120.834 100.672 116.695 102.49L90.5 114H61.3413C56.1789 114 54.4025 107.128 58.9182 104.626L74.8771 95.7843C77.4213 94.3747 79 91.6952 79 88.7866V86L36.8096 97.7195C34.9464 98.2371 33.1681 99.0222 31.5302 100.05Z" fill="#F89F51"/>
<rect x="131" y="11" width="15" height="15" fill="white"/>
<rect x="111" y="11" width="20" height="7" fill="white"/>
</g>
</svg>
