<svg width="160" height="160" viewBox="0 0 160 160" fill="none" xmlns="http://www.w3.org/2000/svg">
<mask id="mask0" mask-type="alpha" maskUnits="userSpaceOnUse" x="0" y="0" width="160" height="160">
<rect width="160" height="160" rx="8" fill="#0145FF"/>
</mask>
<g mask="url(#mask0)">
<rect width="160" height="160" rx="8" fill="#0145FF"/>
<path d="M95.8298 125.985C95.6035 125.303 94.1638 124.299 91.5117 122.974C90.7933 122.557 89.7695 121.99 88.4449 121.27C87.119 120.55 85.9156 119.887 84.8367 119.281C83.7556 118.675 82.7428 118.087 81.7965 117.52C81.6452 117.406 81.1718 117.076 80.3763 116.525C79.58 115.976 78.9085 115.569 78.3582 115.303C77.8092 115.039 77.269 114.906 76.7386 114.906C75.9812 114.906 75.035 115.446 73.8991 116.525C72.7631 117.605 71.721 118.779 70.7745 120.049C69.8277 121.318 68.8237 122.491 67.7641 123.571C66.703 124.651 65.8311 125.191 65.15 125.191C64.8081 125.191 64.3818 125.095 63.8709 124.907C63.3603 124.718 62.9718 124.556 62.7051 124.425C62.4408 124.291 61.9872 124.027 61.3428 123.628C60.6972 123.23 60.3382 123.012 60.2626 122.974C55.0732 120.095 50.6225 116.8 46.9099 113.089C43.1984 109.376 39.9022 104.926 37.0234 99.736C36.9856 99.6602 36.7673 99.3002 36.3699 98.6566C35.9718 98.0124 35.7065 97.5585 35.574 97.2926C35.4415 97.0277 35.2804 96.6393 35.0914 96.128C34.9023 95.6168 34.8074 95.1909 34.8074 94.8496C34.8074 94.1682 35.3473 93.2966 36.427 92.2359C37.5065 91.1758 38.6811 90.1716 39.9496 89.2253C41.2191 88.2791 42.3925 87.2371 43.4724 86.1011C44.5519 84.9646 45.0916 84.0182 45.0916 83.2607C45.0916 82.7308 44.9591 82.1905 44.6942 81.6414C44.4291 81.0912 44.0219 80.4197 43.4724 79.6239C42.9227 78.8285 42.5914 78.3555 42.4775 78.2032C41.9099 77.2569 41.3234 76.2438 40.7166 75.1642C40.1098 74.0848 39.4475 72.8816 38.7274 71.556C38.008 70.2311 37.4402 69.208 37.023 68.4884C35.698 65.8374 34.6943 64.3974 34.0123 64.1709C33.747 64.0573 33.349 64 32.8192 64C31.7958 64 30.4608 64.1891 28.8132 64.5684C27.1649 64.9471 25.8679 65.3443 24.9208 65.7616C23.0267 66.5566 21.0192 68.8671 18.8977 72.6922C16.9658 76.252 16 79.7754 16 83.2597C16 84.2816 16.0663 85.2759 16.1988 86.2426C16.3314 87.2084 16.5682 88.2976 16.9095 89.5099C17.2502 90.7219 17.5251 91.6222 17.7328 92.2084C17.9408 92.7951 18.3291 93.846 18.8975 95.3617C19.4651 96.8769 19.8064 97.8045 19.9201 98.1454C21.2457 101.858 22.8178 105.172 24.6358 108.088C27.627 112.937 31.7091 117.947 36.8796 123.118C42.0502 128.288 47.0599 132.369 51.9088 135.362C54.8254 137.179 58.1408 138.751 61.8527 140.078C62.1938 140.191 63.1214 140.531 64.6362 141.101C66.1515 141.669 67.2029 142.057 67.7896 142.265C68.3765 142.474 69.2771 142.749 70.4881 143.09C71.7017 143.431 72.7899 143.668 73.7558 143.802C74.7222 143.933 75.7167 144 76.7388 144C80.2232 144 83.7471 143.034 87.3077 141.102C91.1326 138.981 93.4426 136.974 94.2381 135.078C94.6564 134.132 95.0527 132.835 95.4314 131.187C95.8113 129.539 96 128.205 96 127.182C96.0012 126.65 95.9441 126.253 95.8298 125.985Z" fill="#4AD4FF"/>
<path d="M144 62C144 45.4315 130.569 32 114 32V32C110.686 32 108 34.6863 108 38V74C108 88.3594 119.641 100 134 100H136C140.418 100 144 96.4183 144 92V62Z" fill="#F26C6A"/>
<path d="M58 62C58 45.4315 71.4315 32 88 32V32C91.3137 32 94 34.6863 94 38V74C94 88.3594 82.3594 100 68 100H66C61.5817 100 58 96.4183 58 92V62Z" fill="#F89F51"/>
<path fill-rule="evenodd" clip-rule="evenodd" d="M103 43.3414V20H99.0004V43.3414C99.0004 49.0943 101.254 54.6182 105.278 58.7296L122.571 76.3989L125.43 73.6011L108.136 55.9318C104.844 52.5679 103 48.0483 103 43.3414Z" fill="#F89F51"/>
<path fill-rule="evenodd" clip-rule="evenodd" d="M99.0002 43.2157V20H103V43.2157C103 49.0505 100.682 54.6463 96.5565 58.7721L78.9144 76.4142L76.0859 73.5858L93.7281 55.9436C97.1037 52.568 99.0002 47.9896 99.0002 43.2157Z" fill="#F26C6A"/>
<path fill-rule="evenodd" clip-rule="evenodd" d="M79 56C74.5817 56 71 59.5817 71 64H67C67 57.3726 72.3726 52 79 52V56Z" fill="#F26C6A"/>
<path fill-rule="evenodd" clip-rule="evenodd" d="M81.1423 81.1422C84.2665 78.018 84.2665 72.9527 81.1423 69.8285L83.9708 67.0001C88.6571 71.6864 88.6571 79.2843 83.9708 83.9706L81.1423 81.1422Z" fill="#F26C6A"/>
<path fill-rule="evenodd" clip-rule="evenodd" d="M72.0003 66.9285C75.8266 64.7193 77.1376 59.8266 74.9285 56.0003L78.3926 54.0003C81.7063 59.7398 79.7398 67.0789 74.0003 70.3926L72.0003 66.9285Z" fill="#F26C6A"/>
<path fill-rule="evenodd" clip-rule="evenodd" d="M66.9207 66.8221C66.1934 71.1801 69.1367 75.3025 73.4947 76.0298L72.8363 79.9752C66.2993 78.8843 61.8843 72.7007 62.9752 66.1637L66.9207 66.8221Z" fill="#F26C6A"/>
<path fill-rule="evenodd" clip-rule="evenodd" d="M87 64C87 59.5817 83.4183 56 79 56L79 52C85.6274 52 91 57.3726 91 64L87 64Z" fill="#F26C6A"/>
<path fill-rule="evenodd" clip-rule="evenodd" d="M69.8285 81.1423C72.9527 84.2665 78.018 84.2665 81.1422 81.1423L83.9706 83.9708C79.2843 88.6571 71.6864 88.6571 67.0001 83.9708L69.8285 81.1423Z" fill="#F26C6A"/>
<path fill-rule="evenodd" clip-rule="evenodd" d="M87 47C82.5817 47 79 50.5817 79 55H75C75 48.3726 80.3726 43 87 43V47Z" fill="#F26C6A"/>
<path fill-rule="evenodd" clip-rule="evenodd" d="M122.456 56C126.874 56 130.456 59.5817 130.456 64H134.456C134.456 57.3726 129.083 52 122.456 52V56Z" fill="#F89F51"/>
<path fill-rule="evenodd" clip-rule="evenodd" d="M135.728 65.4442C136.871 69.7119 134.339 74.0986 130.071 75.2421L131.106 79.1058C137.508 77.3905 141.307 70.8105 139.591 64.4089L135.728 65.4442Z" fill="#F89F51"/>
<path fill-rule="evenodd" clip-rule="evenodd" d="M120.314 81.1422C117.19 78.018 117.19 72.9527 120.314 69.8285L117.485 67.0001C112.799 71.6864 112.799 79.2843 117.485 83.9706L120.314 81.1422Z" fill="#F89F51"/>
<path fill-rule="evenodd" clip-rule="evenodd" d="M129.457 66.9285C125.63 64.7193 124.319 59.8266 126.529 56.0003L123.064 54.0003C119.751 59.7398 121.717 67.0789 127.457 70.3926L129.457 66.9285Z" fill="#F89F51"/>
<path fill-rule="evenodd" clip-rule="evenodd" d="M114.456 64C114.456 59.5817 118.038 56 122.456 56L122.456 52C115.829 52 110.456 57.3726 110.456 64L114.456 64Z" fill="#F89F51"/>
<path fill-rule="evenodd" clip-rule="evenodd" d="M131.628 81.1423C128.503 84.2665 123.438 84.2665 120.314 81.1423L117.485 83.9708C122.172 88.6571 129.77 88.6571 134.456 83.9708L131.628 81.1423Z" fill="#F89F51"/>
<path fill-rule="evenodd" clip-rule="evenodd" d="M114.456 47C118.874 47 122.456 50.5817 122.456 55H126.456C126.456 48.3726 121.083 43 114.456 43V47Z" fill="#F89F51"/>
</g>
</svg>
