<svg width="160" height="160" viewBox="0 0 160 160" fill="none" xmlns="http://www.w3.org/2000/svg">
<rect width="160" height="160" rx="8" fill="#0145FF"/>
<path d="M122.7 132V83.0588H141L80 28L19 83.0588H37.3V132H122.7Z" fill="white"/>
<path d="M81.6761 86.2C84.2226 86.2 86.2644 84.153 86.2644 81.6C86.2644 79.047 84.2226 77 81.6761 77C79.1297 77 77.0879 79.047 77.0879 81.6C77.0879 84.153 79.1297 86.2 81.6761 86.2Z" fill="#F89F51"/>
<path d="M85.1182 107.2V121H78.2359V107.2H71.3535L77.1806 89.651C77.8 87.765 79.5665 86.5 81.5394 86.5H81.8147C83.7876 86.5 85.5312 87.765 86.1735 89.651L92.0006 107.2H85.1182Z" fill="#4AD4FF"/>
<path d="M65.6179 81.6C65.6179 84.153 63.5761 86.2 61.0296 86.2C58.4832 86.2 56.4414 84.153 56.4414 81.6C56.4414 79.047 58.4832 77 61.0296 77C63.5761 77 65.6179 79.047 65.6179 81.6Z" fill="#F89F51"/>
<path d="M56.4412 103.75V121H65.6176V103.75H69.0588V91.1C69.0588 88.57 66.9941 86.5 64.4706 86.5H57.5882C55.0647 86.5 53 88.57 53 91.1V103.75H56.4412Z" fill="#4AD4FF"/>
<path d="M105.149 89.2C105.149 91.2535 103.506 92.9 101.458 92.9C99.4099 92.9 97.7676 91.2535 97.7676 89.2C97.7676 87.1465 99.4099 85.5 101.458 85.5C103.506 85.5 105.149 87.1465 105.149 89.2Z" fill="#F89F51"/>
<path d="M97.7679 107.125V121H105.149V107.125H107.917V96.95C107.917 94.915 106.256 93.25 104.226 93.25H98.6905C96.6607 93.25 95 94.915 95 96.95V107.125H97.7679Z" fill="#4AD4FF"/>
</svg>
