<svg width="160" height="160" viewBox="0 0 160 160" fill="none" xmlns="http://www.w3.org/2000/svg">
<rect width="160" height="160" rx="8" fill="white"/>
<circle cx="81" cy="42" r="11" fill="#F89F51"/>
<path fill-rule="evenodd" clip-rule="evenodd" d="M72.5143 49C70.9436 47.0981 70 44.6593 70 42C70 35.9249 74.9249 31 81 31C84.0991 31 86.8988 32.2816 88.8982 34.3437C87.982 42.584 80.9973 48.9928 72.5143 49Z" fill="black"/>
<circle cx="70" cy="33" r="6" fill="black"/>
<path d="M55 62.9198C55 58.809 56.633 54.8665 59.5398 51.9597L61.3076 50.1919C66.3844 45.1151 74.6156 45.1151 79.6924 50.1919C82.1304 52.6299 83.5 55.9365 83.5 59.3843V69.4995H98V76.9995H78V98.9995H77.7167C77.9051 100.269 78 101.552 78 102.839V124C78 126.761 75.7614 129 73 129C70.2386 129 68 126.761 68 124V106.645C68 104.887 67.7928 103.136 67.3827 101.428L66.8 98.9995H65V124C65 126.761 62.7614 129 60 129C57.2386 129 55 126.761 55 124V62.9198Z" fill="#0145FF"/>
<path opacity="0.4" fill-rule="evenodd" clip-rule="evenodd" d="M78 86V98.9995H77.7167C77.9051 100.269 78 101.552 78 102.839V124C78 126.761 75.7614 129 73 129C70.2386 129 68 126.761 68 124V106.645C68 104.887 67.7928 103.136 67.3827 101.428L66.8 98.9995H65V124C65 126.761 62.7614 129 60 129C57.2386 129 55 126.761 55 124V86H78Z" fill="black"/>
<rect x="92" y="73" width="55" height="4" transform="rotate(90 92 73)" fill="#F26C6A"/>
<path d="M100 73L102 81L98 81L96 73L100 73Z" fill="#F26C6A"/>
<circle cx="80" cy="80" r="62" stroke="#E34B48" stroke-width="12"/>
<path fill-rule="evenodd" clip-rule="evenodd" d="M35.9991 124L123.999 36.0001L132.484 44.4854L44.4844 132.485L35.9991 124Z" fill="#E34B48"/>
</svg>
