<svg width="160" height="160" viewBox="0 0 160 160" fill="none" xmlns="http://www.w3.org/2000/svg">
<rect width="160" height="160" rx="8" fill="#0145FF"/>
<circle cx="80.5" cy="60.5" r="53.5" fill="black"/>
<path d="M123 69C123 44.6995 106.882 25 87 25C67.1177 25 51 44.6995 51 69V117H99C112.255 117 123 106.255 123 93V69Z" fill="#F89F51"/>
<path d="M69 77H123V93C123 106.255 112.255 117 99 117H93C79.7452 117 69 106.255 69 93V77Z" fill="white"/>
<path d="M80.75 41H127L112 25L79.5 15L47 45.5V77H58V61.5H60.25C65.9109 61.5 70.5 56.9109 70.5 51.25C70.5 45.5891 75.0891 41 80.75 41Z" fill="black"/>
<rect x="51" y="77" width="20" height="4" fill="white"/>
<rect x="51" y="96" width="23" height="4" fill="white"/>
<path d="M42 72C42 68.6863 44.6863 66 48 66V66C51.3137 66 54 68.6863 54 72V86H50C45.5817 86 42 82.4183 42 78V72Z" fill="#F89F51"/>
<path d="M51 117H97V137H51V117Z" fill="#F26C6A"/>
<path fill-rule="evenodd" clip-rule="evenodd" d="M13.832 160H146.17C141.073 143.772 125.911 132 108.001 132H52.0008C34.0903 132 18.9291 143.772 13.832 160Z" fill="#4AD4FF"/>
</svg>
