<svg width="160" height="160" viewBox="0 0 160 160" fill="none" xmlns="http://www.w3.org/2000/svg">
<mask id="mask0" mask-type="alpha" maskUnits="userSpaceOnUse" x="0" y="0" width="160" height="160">
<rect width="160" height="160" rx="8" fill="#0145FF"/>
</mask>
<g mask="url(#mask0)">
<rect width="160" height="160" rx="8" fill="white"/>
<path d="M49.0015 44H111.001L105.874 108.944C105.382 115.186 100.173 120 93.9115 120H66.0914C59.8303 120 54.6214 115.186 54.1287 108.944L49.0015 44Z" fill="#4AD4FF"/>
<path fill-rule="evenodd" clip-rule="evenodd" d="M109.502 63H50.502L49.002 44H111.002L109.502 63Z" fill="#F2F2F2"/>
<path d="M169.676 69.6347L221.968 75.0842L252.149 124.231L184.005 99.8639L139.455 121.751C134.87 124.004 129.685 124.735 124.655 123.837L84.157 116.609C85.8183 112.405 89.7983 109.572 94.3148 109.379L122.901 108.158L149.071 95.3006C153.705 93.0241 152.269 86.0733 147.113 85.819L128.89 84.9203C125.985 84.777 123.387 83.0682 122.104 80.4577L120.875 77.9566L163.91 69.8709C165.811 69.5138 167.753 69.4342 169.676 69.6347Z" fill="#F79897"/>
<path fill-rule="evenodd" clip-rule="evenodd" d="M50.5103 63.1293L51.4576 75.128L49.2733 75.878C44.3907 77.5544 44.9421 84.6306 50.0254 85.5305L78.7376 90.6134L106.538 83.846C110.93 82.7767 115.541 84.3926 118.304 87.9701L81.4071 106.163C76.8247 108.422 71.6409 109.16 66.61 108.27L17.7341 99.6172L-30.5391 134.232L-25.6182 86.357L23.1024 66.5976C24.8944 65.8708 26.7824 65.4078 28.7073 65.2229L50.5103 63.1293Z" fill="#F89F51"/>
</g>
<circle cx="80" cy="80" r="62" stroke="#E34B48" stroke-width="12"/>
<path fill-rule="evenodd" clip-rule="evenodd" d="M35.9991 124L123.999 36.0001L132.484 44.4854L44.4844 132.485L35.9991 124Z" fill="#E34B48"/>
</svg>
