<svg width="160" height="160" viewBox="0 0 160 160" fill="none" xmlns="http://www.w3.org/2000/svg">
<mask id="mask0" mask-type="alpha" maskUnits="userSpaceOnUse" x="0" y="0" width="160" height="160">
<rect width="160" height="160" rx="8" fill="#0145FF"/>
</mask>
<g mask="url(#mask0)">
<rect width="160" height="160" rx="8" fill="#0145FF"/>
<rect x="27" y="101.532" width="106.999" height="36.1297" fill="#4AD4FF"/>
<path d="M27 101.532H133.999L111.766 79.2983H49.2337L27 101.532Z" fill="#3BB7FF"/>
<path d="M96.7591 50.1168C87.8657 50.1168 87.8657 39 79.1112 39C70.2177 39 70.2177 50.1168 61.4632 50.1168C52.5697 50.1168 52.5697 39 43.6763 39C43.6763 39 57.5723 72.9063 57.5723 91.1101H100.65C100.65 72.9063 114.546 39 114.546 39C105.653 39 105.653 50.1168 96.7591 50.1168Z" fill="white"/>
<path fill-rule="evenodd" clip-rule="evenodd" d="M89.8834 46.9327L81.6543 91.1104H75.7868L68.9697 46.1179C69.392 45.6213 69.8006 45.1066 70.2094 44.5915C72.424 41.8014 74.6473 39.0002 79.1115 39.0002C83.4716 39.0002 85.6602 41.7576 87.8574 44.5258C88.5127 45.3514 89.1688 46.178 89.8834 46.9327Z" fill="#F2F2F2"/>
<path d="M149.033 51.8111L201.208 34.9004L203.765 -15.1408L155.368 15.6816L106.702 11.7753C101.633 11.3684 96.4958 12.6722 92.059 15.4915L56.477 38.101C59.3739 41.5072 64.0482 42.7036 68.3516 41.1403L95.4764 31.2868L124.518 33.618C129.544 34.0214 130.466 41.0711 125.782 43.279L108.466 51.4418C105.837 52.681 103.994 55.2533 103.642 58.1737L103.275 61.2231L149.033 51.8111Z" fill="#F89F51"/>
</g>
</svg>
