<svg width="160" height="160" viewBox="0 0 160 160" fill="none" xmlns="http://www.w3.org/2000/svg">
<mask id="mask0" mask-type="alpha" maskUnits="userSpaceOnUse" x="0" y="0" width="160" height="160">
<rect width="160" height="160" rx="8" fill="#0145FF"/>
</mask>
<g mask="url(#mask0)">
<rect width="160" height="160" rx="8" fill="white"/>
<circle cx="80.5" cy="60.5" r="53.5" fill="black"/>
<path d="M123 69C123 44.6995 106.882 25 87 25C67.1177 25 51 44.6995 51 69V117H99C112.255 117 123 106.255 123 93V69Z" fill="#F89F51"/>
<path d="M80.75 41H127L112 25L79.5 15L47 45.5V77H58V61.5H60.25C65.9109 61.5 70.5 56.9109 70.5 51.25C70.5 45.5891 75.0891 41 80.75 41Z" fill="black"/>
<path d="M42 72C42 68.6863 44.6863 66 48 66C51.3137 66 54 68.6863 54 72V86H50C45.5817 86 42 82.4183 42 78V72Z" fill="#F89F51"/>
<path d="M51 117H97V137H51V117Z" fill="#F26C6A"/>
<path fill-rule="evenodd" clip-rule="evenodd" d="M13.832 160H146.17C141.073 143.772 125.911 132 108.001 132H52.0008C34.0903 132 18.9291 143.772 13.832 160Z" fill="#4AD4FF"/>
<path d="M151.404 96.2329C151.751 99.7007 149.364 102.617 145.896 102.964C144.468 103.107 143.204 102.821 141.919 102.331L133.046 98.0672L140.9 92.132C142.062 91.3978 143.246 90.8675 144.673 90.7248C148.141 90.3784 151.058 92.7652 151.404 96.2329Z" fill="#4AD4FF"/>
<path d="M142.379 120.171C139.836 122.553 136.069 122.43 133.686 119.886C132.706 118.839 132.164 117.661 131.772 116.343L129.767 106.705L139.253 109.336C140.543 109.813 141.683 110.431 142.664 111.478C145.046 114.021 144.923 117.788 142.379 120.171Z" fill="#4AD4FF"/>
<path fill-rule="evenodd" clip-rule="evenodd" d="M123 89H91C86.5817 89 83 92.5817 83 97C83 101.418 86.5817 105 91 105H119.789C121.831 101.47 123 97.3714 123 93V89Z" fill="#E34B48"/>
</g>
</svg>
